<svg width="88" height="68" viewBox="0 0 88 68" fill="none" xmlns="http://www.w3.org/2000/svg">
<path d="M88 13.2795C88 14.8058 87.4701 16.1033 86.4103 17.1717L45.3058 58.6128L37.5845 66.3973C36.5247 67.4658 35.2379 68 33.7239 68C32.2099 68 30.923 67.4658 29.8632 66.3973L22.1419 58.6128L1.58968 37.8923C0.529893 36.8238 0 35.5264 0 34C0 32.4736 0.529893 31.1762 1.58968 30.1077L9.31097 22.3232C10.3708 21.2548 11.6576 20.7205 13.1716 20.7205C14.6856 20.7205 15.9725 21.2548 17.0323 22.3232L33.7239 39.2088L70.9677 1.60269C72.0275 0.534231 73.3144 0 74.8284 0C76.3424 0 77.6292 0.534231 78.689 1.60269L86.4103 9.38721C87.4701 10.4557 88 11.7531 88 13.2795Z" fill="url(#paint0_linear_567_12831)"/>
<defs>
<linearGradient id="paint0_linear_567_12831" x1="38.2" y1="71.2" x2="38.2" y2="2.60793e-07" gradientUnits="userSpaceOnUse">
<stop stop-color="#3772F7"/>
<stop offset="1" stop-color="#B5D0FF"/>
</linearGradient>
</defs>
</svg>
