<svg width="180" height="180" viewBox="0 0 180 180" fill="none" xmlns="http://www.w3.org/2000/svg">
<circle cx="90" cy="90" r="90" fill="#F5F5F5"/>
<circle cx="90" cy="90" r="89.5" stroke="black" stroke-opacity="0.1" stroke-dasharray="2 2"/>
<path d="M90 69.2C87.171 69.2 84.4579 70.2957 82.4575 72.2461C80.4571 74.1965 79.3333 76.8417 79.3333 79.6C79.3333 82.3583 80.4571 85.0035 82.4575 86.9539C84.4579 88.9043 87.171 90 90 90C92.829 90 95.5421 88.9043 97.5425 86.9539C99.5429 85.0035 100.667 82.3583 100.667 79.6C100.667 76.8417 99.5429 74.1965 97.5425 72.2461C95.5421 70.2957 92.829 69.2 90 69.2ZM74 79.6C74 75.4626 75.6857 71.4947 78.6863 68.5691C81.6869 65.6436 85.7565 64 90 64C94.2435 64 98.3131 65.6436 101.314 68.5691C104.314 71.4947 106 75.4626 106 79.6C106 83.7374 104.314 87.7053 101.314 90.6309C98.3131 93.5564 94.2435 95.2 90 95.2C85.7565 95.2 81.6869 93.5564 78.6863 90.6309C75.6857 87.7053 74 83.7374 74 79.6ZM79.3333 105.6C77.2116 105.6 75.1768 106.422 73.6765 107.885C72.1762 109.347 71.3333 111.331 71.3333 113.4C71.3333 114.09 71.0524 114.751 70.5523 115.238C70.0522 115.726 69.3739 116 68.6667 116C67.9594 116 67.2811 115.726 66.781 115.238C66.281 114.751 66 114.09 66 113.4C66 109.952 67.4048 106.646 69.9052 104.208C72.4057 101.77 75.7971 100.4 79.3333 100.4H100.667C104.203 100.4 107.594 101.77 110.095 104.208C112.595 106.646 114 109.952 114 113.4C114 114.09 113.719 114.751 113.219 115.238C112.719 115.726 112.041 116 111.333 116C110.626 116 109.948 115.726 109.448 115.238C108.948 114.751 108.667 114.09 108.667 113.4C108.667 111.331 107.824 109.347 106.324 107.885C104.823 106.422 102.788 105.6 100.667 105.6H79.3333Z" fill="#DDDDDD"/>
</svg>
