<svg width="36" height="36" viewBox="0 0 36 36" fill="none" xmlns="http://www.w3.org/2000/svg">
<path d="M11 18C11 18.2652 10.8946 18.5196 10.7071 18.7071C10.5196 18.8946 10.2652 19 10 19C9.73478 19 9.48043 18.8946 9.29289 18.7071C9.10536 18.5196 9 18.2652 9 18C9 17.7348 9.10536 17.4804 9.29289 17.2929C9.48043 17.1054 9.73478 17 10 17C10.2652 17 10.5196 17.1054 10.7071 17.2929C10.8946 17.4804 11 17.7348 11 18ZM19 18C19 18.2652 18.8946 18.5196 18.7071 18.7071C18.5196 18.8946 18.2652 19 18 19C17.7348 19 17.4804 18.8946 17.2929 18.7071C17.1054 18.5196 17 18.2652 17 18C17 17.7348 17.1054 17.4804 17.2929 17.2929C17.4804 17.1054 17.7348 17 18 17C18.2652 17 18.5196 17.1054 18.7071 17.2929C18.8946 17.4804 19 17.7348 19 18ZM27 18C27 18.2652 26.8946 18.5196 26.7071 18.7071C26.5196 18.8946 26.2652 19 26 19C25.7348 19 25.4804 18.8946 25.2929 18.7071C25.1054 18.5196 25 18.2652 25 18C25 17.7348 25.1054 17.4804 25.2929 17.2929C25.4804 17.1054 25.7348 17 26 17C26.2652 17 26.5196 17.1054 26.7071 17.2929C26.8946 17.4804 27 17.7348 27 18Z" fill="white" stroke="white" stroke-width="2" stroke-linecap="round" stroke-linejoin="round"/>
</svg>
