<svg width="20" height="20" viewBox="0 0 20 20" fill="none" xmlns="http://www.w3.org/2000/svg">
<path d="M8.63636 5H17.5M8.63636 5C8.63636 5.33152 8.4927 5.64946 8.23696 5.88388C7.98123 6.1183 7.63439 6.25 7.27273 6.25C6.91107 6.25 6.56422 6.1183 6.30849 5.88388C6.05276 5.64946 5.90909 5.33152 5.90909 5M8.63636 5C8.63636 4.66848 8.4927 4.35054 8.23696 4.11612C7.98123 3.8817 7.63439 3.75 7.27273 3.75C6.91107 3.75 6.56422 3.8817 6.30849 4.11612C6.05276 4.35054 5.90909 4.66848 5.90909 5M5.90909 5H2.5M8.63636 15H17.5M8.63636 15C8.63636 15.3315 8.4927 15.6495 8.23696 15.8839C7.98123 16.1183 7.63439 16.25 7.27273 16.25C6.91107 16.25 6.56422 16.1183 6.30849 15.8839C6.05276 15.6495 5.90909 15.3315 5.90909 15M8.63636 15C8.63636 14.6685 8.4927 14.3505 8.23696 14.1161C7.98123 13.8817 7.63439 13.75 7.27273 13.75C6.91107 13.75 6.56422 13.8817 6.30849 14.1161C6.05276 14.3505 5.90909 14.6685 5.90909 15M5.90909 15H2.5M14.0909 10H17.5M14.0909 10C14.0909 10.3315 13.9472 10.6495 13.6915 10.8839C13.4358 11.1183 13.0889 11.25 12.7273 11.25C12.3656 11.25 12.0188 11.1183 11.763 10.8839C11.5073 10.6495 11.3636 10.3315 11.3636 10M14.0909 10C14.0909 9.66848 13.9472 9.35054 13.6915 9.11612C13.4358 8.8817 13.0889 8.75 12.7273 8.75C12.3656 8.75 12.0188 8.8817 11.763 9.11612C11.5073 9.35054 11.3636 9.66848 11.3636 10M11.3636 10H2.5" stroke="#767676" stroke-width="1.5" stroke-linecap="round" stroke-linejoin="round"/>
</svg>
