<svg width="24" height="24" viewBox="0 0 24 24" fill="none" xmlns="http://www.w3.org/2000/svg">
<path d="M12.7323 9.96185C13.1322 10.1528 13.4804 10.4369 13.7478 10.7903C14.0151 11.1437 14.1937 11.5561 14.2686 11.9929C14.3434 12.4297 14.3124 12.878 14.1781 13.3003C14.0438 13.7226 13.8101 14.1065 13.4966 14.4197L10.7274 17.1889C10.2081 17.7082 9.50369 18 8.76924 18C8.03479 18 7.33042 17.7082 6.81109 17.1889C6.29176 16.6696 6 15.9652 6 15.2308C6 14.4963 6.29176 13.7919 6.81109 13.2726L7.89232 12.1914M16.1077 11.8086L17.1889 10.7274C17.7082 10.2081 18 9.50369 18 8.76924C18 8.03479 17.7082 7.33042 17.1889 6.81109C16.6696 6.29176 15.9652 6 15.2308 6C14.4963 6 13.7919 6.29176 13.2726 6.81109L10.5034 9.58031C10.1899 9.89355 9.95623 10.2774 9.8219 10.6997C9.68758 11.122 9.65655 11.5703 9.73143 12.0071C9.80632 12.4439 9.98492 12.8563 10.2522 13.2097C10.5196 13.5631 10.8678 13.8472 11.2677 14.0381" stroke="#3772F7" stroke-width="1.5" stroke-linecap="round" stroke-linejoin="round"/>
</svg>
