<svg width="30" height="30" viewBox="0 0 30 30" fill="none" xmlns="http://www.w3.org/2000/svg">
<path fill-rule="evenodd" clip-rule="evenodd" d="M8.57143 7.5C8.42935 7.5 8.29309 7.56078 8.19262 7.66898C8.09216 7.77717 8.03571 7.92391 8.03571 8.07692C8.03571 8.22993 8.09216 8.37668 8.19262 8.48487C8.29309 8.59306 8.42935 8.65385 8.57143 8.65385V21.3462H8.03571C7.89363 21.3462 7.75737 21.4069 7.65691 21.5151C7.55644 21.6233 7.5 21.7701 7.5 21.9231C7.5 22.0761 7.55644 22.2228 7.65691 22.331C7.75737 22.4392 7.89363 22.5 8.03571 22.5H17.1429V8.65385C17.2849 8.65385 17.4212 8.59306 17.5217 8.48487C17.6221 8.37668 17.6786 8.22993 17.6786 8.07692C17.6786 7.92391 17.6221 7.77717 17.5217 7.66898C17.4212 7.56078 17.2849 7.5 17.1429 7.5H8.57143ZM11.25 20.7692V19.0385C11.25 18.8855 11.3064 18.7387 11.4069 18.6305C11.5074 18.5223 11.6436 18.4615 11.7857 18.4615H13.9286C14.0707 18.4615 14.2069 18.5223 14.3074 18.6305C14.4078 18.7387 14.4643 18.8855 14.4643 19.0385V20.7692C14.4643 20.9222 14.4078 21.069 14.3074 21.1772C14.2069 21.2854 14.0707 21.3462 13.9286 21.3462H11.7857C11.6436 21.3462 11.5074 21.2854 11.4069 21.1772C11.3064 21.069 11.25 20.9222 11.25 20.7692ZM10.7143 10.9615C10.7143 10.8085 10.7707 10.6618 10.8712 10.5536C10.9717 10.4454 11.1079 10.3846 11.25 10.3846H11.7857C11.9278 10.3846 12.0641 10.4454 12.1645 10.5536C12.265 10.6618 12.3214 10.8085 12.3214 10.9615C12.3214 11.1145 12.265 11.2613 12.1645 11.3695C12.0641 11.4777 11.9278 11.5385 11.7857 11.5385H11.25C11.1079 11.5385 10.9717 11.4777 10.8712 11.3695C10.7707 11.2613 10.7143 11.1145 10.7143 10.9615ZM11.25 12.6923C11.1079 12.6923 10.9717 12.7531 10.8712 12.8613C10.7707 12.9695 10.7143 13.1162 10.7143 13.2692C10.7143 13.4222 10.7707 13.569 10.8712 13.6772C10.9717 13.7854 11.1079 13.8462 11.25 13.8462H11.7857C11.9278 13.8462 12.0641 13.7854 12.1645 13.6772C12.265 13.569 12.3214 13.4222 12.3214 13.2692C12.3214 13.1162 12.265 12.9695 12.1645 12.8613C12.0641 12.7531 11.9278 12.6923 11.7857 12.6923H11.25ZM10.7143 15.5769C10.7143 15.4239 10.7707 15.2772 10.8712 15.169C10.9717 15.0608 11.1079 15 11.25 15H11.7857C11.9278 15 12.0641 15.0608 12.1645 15.169C12.265 15.2772 12.3214 15.4239 12.3214 15.5769C12.3214 15.7299 12.265 15.8767 12.1645 15.9849C12.0641 16.0931 11.9278 16.1538 11.7857 16.1538H11.25C11.1079 16.1538 10.9717 16.0931 10.8712 15.9849C10.7707 15.8767 10.7143 15.7299 10.7143 15.5769ZM13.9286 10.3846C13.7865 10.3846 13.6502 10.4454 13.5498 10.5536C13.4493 10.6618 13.3929 10.8085 13.3929 10.9615C13.3929 11.1145 13.4493 11.2613 13.5498 11.3695C13.6502 11.4777 13.7865 11.5385 13.9286 11.5385H14.4643C14.6064 11.5385 14.7426 11.4777 14.8431 11.3695C14.9436 11.2613 15 11.1145 15 10.9615C15 10.8085 14.9436 10.6618 14.8431 10.5536C14.7426 10.4454 14.6064 10.3846 14.4643 10.3846H13.9286ZM13.3929 13.2692C13.3929 13.1162 13.4493 12.9695 13.5498 12.8613C13.6502 12.7531 13.7865 12.6923 13.9286 12.6923H14.4643C14.6064 12.6923 14.7426 12.7531 14.8431 12.8613C14.9436 12.9695 15 13.1162 15 13.2692C15 13.4222 14.9436 13.569 14.8431 13.6772C14.7426 13.7854 14.6064 13.8462 14.4643 13.8462H13.9286C13.7865 13.8462 13.6502 13.7854 13.5498 13.6772C13.4493 13.569 13.3929 13.4222 13.3929 13.2692ZM13.9286 15C13.7865 15 13.6502 15.0608 13.5498 15.169C13.4493 15.2772 13.3929 15.4239 13.3929 15.5769C13.3929 15.7299 13.4493 15.8767 13.5498 15.9849C13.6502 16.0931 13.7865 16.1538 13.9286 16.1538H14.4643C14.6064 16.1538 14.7426 16.0931 14.8431 15.9849C14.9436 15.8767 15 15.7299 15 15.5769C15 15.4239 14.9436 15.2772 14.8431 15.169C14.7426 15.0608 14.6064 15 14.4643 15H13.9286ZM18.2143 10.9615V22.5H21.9643C22.1064 22.5 22.2426 22.4392 22.3431 22.331C22.4436 22.2228 22.5 22.0761 22.5 21.9231C22.5 21.7701 22.4436 21.6233 22.3431 21.5151C22.2426 21.4069 22.1064 21.3462 21.9643 21.3462H21.4286V12.1154C21.5707 12.1154 21.7069 12.0546 21.8074 11.9464C21.9078 11.8382 21.9643 11.6915 21.9643 11.5385C21.9643 11.3855 21.9078 11.2387 21.8074 11.1305C21.7069 11.0223 21.5707 10.9615 21.4286 10.9615H18.2143ZM19.2857 14.4231C19.2857 14.2701 19.3422 14.1233 19.4426 14.0151C19.5431 13.9069 19.6793 13.8462 19.8214 13.8462H19.8271C19.9692 13.8462 20.1055 13.9069 20.206 14.0151C20.3064 14.1233 20.3629 14.2701 20.3629 14.4231V14.4292C20.3629 14.5822 20.3064 14.729 20.206 14.8372C20.1055 14.9454 19.9692 15.0062 19.8271 15.0062H19.8214C19.6793 15.0062 19.5431 14.9454 19.4426 14.8372C19.3422 14.729 19.2857 14.5822 19.2857 14.4292V14.4231ZM19.8214 16.1538C19.6793 16.1538 19.5431 16.2146 19.4426 16.3228C19.3422 16.431 19.2857 16.5778 19.2857 16.7308V16.7369C19.2857 17.0554 19.5257 17.3138 19.8214 17.3138H19.8271C19.9692 17.3138 20.1055 17.2531 20.206 17.1449C20.3064 17.0367 20.3629 16.8899 20.3629 16.7369V16.7308C20.3629 16.5778 20.3064 16.431 20.206 16.3228C20.1055 16.2146 19.9692 16.1538 19.8271 16.1538H19.8214ZM19.2857 19.0385C19.2857 18.8855 19.3422 18.7387 19.4426 18.6305C19.5431 18.5223 19.6793 18.4615 19.8214 18.4615H19.8271C19.9692 18.4615 20.1055 18.5223 20.206 18.6305C20.3064 18.7387 20.3629 18.8855 20.3629 19.0385V19.0446C20.3629 19.1976 20.3064 19.3444 20.206 19.4526C20.1055 19.5608 19.9692 19.6215 19.8271 19.6215H19.8214C19.6793 19.6215 19.5431 19.5608 19.4426 19.4526C19.3422 19.3444 19.2857 19.1976 19.2857 19.0446V19.0385Z" fill="#3772F7"/>
</svg>
