<svg width="21" height="20" viewBox="0 0 21 20" fill="none" xmlns="http://www.w3.org/2000/svg">
<path fill-rule="evenodd" clip-rule="evenodd" d="M4 5C4 4.46957 4.21071 3.96086 4.58579 3.58579C4.96086 3.21071 5.46957 3 6 3H6.91467C7.488 3 7.988 3.39067 8.12733 3.94667L8.864 6.89533C8.9237 7.134 8.91164 7.38497 8.82934 7.61682C8.74704 7.84866 8.59815 8.05106 8.40133 8.19867L7.53933 8.84533C7.44933 8.91267 7.43 9.01133 7.45533 9.08C7.83159 10.1032 8.42573 11.0325 9.19663 11.8034C9.96753 12.5743 10.8968 13.1684 11.92 13.5447C11.9887 13.57 12.0867 13.5507 12.1547 13.4607L12.8013 12.5987C12.9489 12.4018 13.1513 12.253 13.3832 12.1707C13.615 12.0884 13.866 12.0763 14.1047 12.136L17.0533 12.8727C17.6093 13.012 18 13.512 18 14.086V15C18 15.5304 17.7893 16.0391 17.4142 16.4142C17.0391 16.7893 16.5304 17 16 17H14.5C8.70133 17 4 12.2987 4 6.5V5Z" fill="#3772F7"/>
</svg>
