<svg width="24" height="24" viewBox="0 0 24 24" fill="none" xmlns="http://www.w3.org/2000/svg">
<path fill-rule="evenodd" clip-rule="evenodd" d="M11.6655 18.8907L11.7164 18.9204L11.7367 18.9322C11.8175 18.9767 11.9078 19 11.9996 19C12.0914 19 12.1818 18.9767 12.2625 18.9322L12.2829 18.9211L12.3345 18.8907C12.619 18.7189 12.8966 18.5356 13.1665 18.3411C13.8655 17.8384 14.5186 17.2726 15.1178 16.6506C16.5316 15.1764 18 12.9614 18 10.1116C18 8.49068 17.3679 6.93618 16.2426 5.79004C15.1174 4.6439 13.5913 4 12 4C10.4087 4 8.88258 4.6439 7.75736 5.79004C6.63214 6.93618 6 8.49068 6 10.1116C6 12.9607 7.46909 15.1764 8.88218 16.6506C9.4812 17.2726 10.134 17.8384 10.8327 18.3411C11.103 18.5356 11.3808 18.719 11.6655 18.8907ZM12 12.334C12.5787 12.334 13.1336 12.0998 13.5428 11.683C13.9519 11.2663 14.1818 10.701 14.1818 10.1116C14.1818 9.52216 13.9519 8.95688 13.5428 8.5401C13.1336 8.12332 12.5787 7.88918 12 7.88918C11.4213 7.88918 10.8664 8.12332 10.4572 8.5401C10.0481 8.95688 9.81818 9.52216 9.81818 10.1116C9.81818 10.701 10.0481 11.2663 10.4572 11.683C10.8664 12.0998 11.4213 12.334 12 12.334Z" fill="#FFE100"/>
</svg>
