<svg width="30" height="30" viewBox="0 0 30 30" fill="none" xmlns="http://www.w3.org/2000/svg">
<path fill-rule="evenodd" clip-rule="evenodd" d="M14.5818 23.6134L14.6455 23.6505L14.6709 23.6653C14.7718 23.7209 14.8848 23.75 14.9995 23.75C15.1143 23.75 15.2272 23.7209 15.3282 23.6653L15.3536 23.6514L15.4182 23.6134C15.7737 23.3987 16.1207 23.1695 16.4582 22.9263C17.3319 22.298 18.1482 21.5908 18.8973 20.8132C20.6645 18.9705 22.5 16.2018 22.5 12.6395C22.5 10.6134 21.7098 8.67022 20.3033 7.23755C18.8968 5.80487 16.9891 5 15 5C13.0109 5 11.1032 5.80487 9.6967 7.23755C8.29018 8.67022 7.5 10.6134 7.5 12.6395C7.5 16.2008 9.33636 18.9705 11.1027 20.8132C11.8515 21.5908 12.6675 22.298 13.5409 22.9263C13.8787 23.1695 14.2259 23.3987 14.5818 23.6134ZM15 15.4174C15.7233 15.4174 16.417 15.1248 16.9285 14.6038C17.4399 14.0828 17.7273 13.3762 17.7273 12.6395C17.7273 11.9027 17.4399 11.1961 16.9285 10.6751C16.417 10.1542 15.7233 9.86148 15 9.86148C14.2767 9.86148 13.583 10.1542 13.0715 10.6751C12.5601 11.1961 12.2727 11.9027 12.2727 12.6395C12.2727 13.3762 12.5601 14.0828 13.0715 14.6038C13.583 15.1248 14.2767 15.4174 15 15.4174Z" fill="#3772F7"/>
</svg>
