<svg width="64" height="64" viewBox="0 0 64 64" fill="none" xmlns="http://www.w3.org/2000/svg">
<path fill-rule="evenodd" clip-rule="evenodd" d="M32 8C18.7446 8 8 18.7446 8 32C8 45.2554 18.7446 56 32 56C45.2554 56 56 45.2554 56 32C56 18.7446 45.2554 8 32 8ZM33.8462 24.6154C33.8462 24.1258 33.6516 23.6562 33.3054 23.31C32.9592 22.9637 32.4896 22.7692 32 22.7692C31.5104 22.7692 31.0408 22.9637 30.6946 23.31C30.3484 23.6562 30.1538 24.1258 30.1538 24.6154V30.1538H24.6154C24.1258 30.1538 23.6562 30.3484 23.31 30.6946C22.9637 31.0408 22.7692 31.5104 22.7692 32C22.7692 32.4896 22.9637 32.9592 23.31 33.3054C23.6562 33.6516 24.1258 33.8462 24.6154 33.8462H30.1538V39.3846C30.1538 39.8742 30.3484 40.3438 30.6946 40.69C31.0408 41.0363 31.5104 41.2308 32 41.2308C32.4896 41.2308 32.9592 41.0363 33.3054 40.69C33.6516 40.3438 33.8462 39.8742 33.8462 39.3846V33.8462H39.3846C39.8742 33.8462 40.3438 33.6516 40.69 33.3054C41.0363 32.9592 41.2308 32.4896 41.2308 32C41.2308 31.5104 41.0363 31.0408 40.69 30.6946C40.3438 30.3484 39.8742 30.1538 39.3846 30.1538H33.8462V24.6154Z" fill="#DDDDDD"/>
</svg>
