<svg width="20" height="20" viewBox="0 0 20 20" fill="none" xmlns="http://www.w3.org/2000/svg">
<path fill-rule="evenodd" clip-rule="evenodd" d="M10 1C5.02923 1 1 5.02923 1 10C1 14.9708 5.02923 19 10 19C14.9708 19 19 14.9708 19 10C19 5.02923 14.9708 1 10 1ZM8.41231 7.43385C8.34893 7.36583 8.2725 7.31127 8.18757 7.27343C8.10265 7.23559 8.01098 7.21525 7.91802 7.21361C7.82506 7.21197 7.73273 7.22907 7.64653 7.26389C7.56032 7.29871 7.48201 7.35053 7.41627 7.41627C7.35053 7.48201 7.29871 7.56032 7.26389 7.64653C7.22907 7.73273 7.21197 7.82506 7.21361 7.91802C7.21525 8.01098 7.23559 8.10265 7.27343 8.18757C7.31127 8.2725 7.36583 8.34893 7.43385 8.41231L9.02154 10L7.43385 11.5877C7.36583 11.6511 7.31127 11.7275 7.27343 11.8124C7.23559 11.8973 7.21525 11.989 7.21361 12.082C7.21197 12.1749 7.22907 12.2673 7.26389 12.3535C7.29871 12.4397 7.35053 12.518 7.41627 12.5837C7.48201 12.6495 7.56032 12.7013 7.64653 12.7361C7.73273 12.7709 7.82506 12.788 7.91802 12.7864C8.01098 12.7848 8.10265 12.7644 8.18757 12.7266C8.2725 12.6887 8.34893 12.6342 8.41231 12.5662L10 10.9785L11.5877 12.5662C11.6511 12.6342 11.7275 12.6887 11.8124 12.7266C11.8973 12.7644 11.989 12.7848 12.082 12.7864C12.1749 12.788 12.2673 12.7709 12.3535 12.7361C12.4397 12.7013 12.518 12.6495 12.5837 12.5837C12.6495 12.518 12.7013 12.4397 12.7361 12.3535C12.7709 12.2673 12.788 12.1749 12.7864 12.082C12.7848 11.989 12.7644 11.8973 12.7266 11.8124C12.6887 11.7275 12.6342 11.6511 12.5662 11.5877L10.9785 10L12.5662 8.41231C12.6342 8.34893 12.6887 8.2725 12.7266 8.18757C12.7644 8.10265 12.7848 8.01098 12.7864 7.91802C12.788 7.82506 12.7709 7.73273 12.7361 7.64653C12.7013 7.56032 12.6495 7.48201 12.5837 7.41627C12.518 7.35053 12.4397 7.29871 12.3535 7.26389C12.2673 7.22907 12.1749 7.21197 12.082 7.21361C11.989 7.21525 11.8973 7.23559 11.8124 7.27343C11.7275 7.31127 11.6511 7.36583 11.5877 7.43385L10 9.02154L8.41231 7.43385Z" fill="white"/>
</svg>
