<svg width="20" height="20" viewBox="0 0 20 20" fill="none" xmlns="http://www.w3.org/2000/svg">
<path fill-rule="evenodd" clip-rule="evenodd" d="M1 10C1 5.02923 5.02923 1 10 1C14.9708 1 19 5.02923 19 10C19 14.9708 14.9708 19 10 19C5.02923 19 1 14.9708 1 10ZM13.3323 8.32554C13.3877 8.25174 13.4278 8.16761 13.4502 8.07811C13.4726 7.9886 13.4769 7.89552 13.4628 7.80433C13.4487 7.71314 13.4165 7.62568 13.3682 7.54711C13.3198 7.46853 13.2562 7.40041 13.1812 7.34675C13.1061 7.2931 13.0211 7.25499 12.9311 7.23467C12.8411 7.21435 12.7479 7.21223 12.6571 7.22843C12.5662 7.24462 12.4795 7.27882 12.4021 7.32899C12.3247 7.37917 12.258 7.44432 12.2062 7.52062L9.21908 11.7022L7.72 10.2031C7.58876 10.0808 7.41518 10.0142 7.23583 10.0174C7.05647 10.0205 6.88535 10.0932 6.7585 10.22C6.63166 10.3469 6.559 10.518 6.55584 10.6974C6.55267 10.8767 6.61925 11.0503 6.74154 11.1815L8.81846 13.2585C8.88953 13.3295 8.9752 13.3842 9.06953 13.4187C9.16385 13.4533 9.26458 13.467 9.3647 13.4587C9.46483 13.4505 9.56196 13.4205 9.64935 13.3709C9.73674 13.3214 9.81229 13.2534 9.87077 13.1717L13.3323 8.32554Z" fill="white"/>
</svg>
