<svg width="351" height="50" viewBox="0 0 351 50" fill="none" xmlns="http://www.w3.org/2000/svg">
<path d="M25 10H325" stroke="#DDDDDD" stroke-linecap="round"/>
<path d="M7.30781 35.7969C7.20625 34.8203 6.38594 34.2578 5.16719 34.2656C3.87812 34.2578 3.1125 34.8828 3.10469 35.7344C3.09687 36.6875 4.10469 37.0781 5.04219 37.2969L6.10469 37.5781C7.79219 37.9688 9.41719 38.8594 9.41719 40.8281C9.41719 42.8125 7.84687 44.1719 5.13594 44.1719C2.50312 44.1719 0.831249 42.9062 0.745312 40.6719H2.74531C2.83906 41.8516 3.83125 42.4297 5.12031 42.4375C6.45625 42.4297 7.37812 41.7812 7.38594 40.8125C7.37812 39.9219 6.56562 39.5469 5.33906 39.2344L4.05781 38.9062C2.19844 38.4219 1.04219 37.4844 1.04219 35.8594C1.04219 33.8594 2.81562 32.5312 5.19844 32.5312C7.59687 32.5312 9.22969 33.8828 9.26094 35.7969H7.30781ZM10.2847 34.3906V32.6875H19.3003V34.3906H15.8159V44H13.7847V34.3906H10.2847ZM20.5741 44V32.6875H27.9334V34.3906H22.6053V37.4844H27.5428V39.1875H22.6053V42.2812H27.9647V44H20.5741ZM29.5666 44V32.6875H33.8166C36.4103 32.6875 37.7931 34.2656 37.8009 36.4375C37.7931 38.6016 36.3947 40.1719 33.7853 40.1719H31.5978V44H29.5666ZM31.5978 38.5H33.5041C35.0353 38.4922 35.7228 37.6328 35.7228 36.4375C35.7228 35.2266 35.0353 34.3906 33.5041 34.3906H31.5978V38.5ZM47.0828 32.6875V44H45.0359V34.6719H44.9734L42.3328 36.3594V34.5L45.1297 32.6875H47.0828Z" fill="#3772F7"/>
<path d="M156.527 35.6719C156.417 34.6172 155.495 34.0156 154.198 34.0156C152.816 34.0156 151.941 34.7266 151.933 35.6875C151.933 36.7578 153.097 37.1797 153.995 37.3906L155.089 37.6875C156.534 38.0391 158.347 38.8281 158.355 40.875C158.347 42.7891 156.823 44.1875 154.152 44.1875C151.62 44.1875 150.027 42.9219 149.917 40.8594H151.636C151.737 42.0938 152.831 42.6797 154.152 42.6875C155.597 42.6797 156.644 41.9531 156.652 40.8438C156.644 39.8594 155.706 39.4609 154.511 39.1406L153.167 38.7812C151.347 38.2812 150.222 37.3594 150.214 35.7812C150.222 33.8281 151.956 32.5312 154.245 32.5312C156.542 32.5312 158.144 33.8438 158.198 35.6719H156.527ZM159.316 34.1719V32.6875H168.082V34.1719H164.566V44H162.847V34.1719H159.316ZM169.512 44V32.6875H176.605V34.1719H171.23V37.5938H176.23V39.0625H171.23V42.5156H176.668V44H169.512ZM178.395 44V32.6875H182.426C185.059 32.6875 186.348 34.2656 186.348 36.3594C186.348 38.4453 185.051 40.0312 182.426 40.0312H180.113V44H178.395ZM180.113 38.5625H182.254C183.918 38.5703 184.613 37.6328 184.613 36.3594C184.613 35.0781 183.918 34.1641 182.254 34.1562H180.113V38.5625ZM191.27 44V42.75L195.192 38.7969C196.434 37.5078 197.052 36.7891 197.052 35.7969C197.052 34.6797 196.145 33.9688 194.958 33.9688C193.7 33.9688 192.903 34.7656 192.895 35.9688H191.27C191.255 33.8984 192.833 32.5312 194.989 32.5312C197.169 32.5312 198.677 33.9141 198.692 35.75C198.677 37.0156 198.083 38.0234 195.958 40.1094L193.661 42.4375V42.5312H198.88V44H191.27Z" fill="#949494"/>
<path d="M306.792 35.6719C306.683 34.6172 305.761 34.0156 304.464 34.0156C303.081 34.0156 302.206 34.7266 302.198 35.6875C302.198 36.7578 303.362 37.1797 304.261 37.3906L305.355 37.6875C306.8 38.0391 308.612 38.8281 308.62 40.875C308.612 42.7891 307.089 44.1875 304.417 44.1875C301.886 44.1875 300.292 42.9219 300.183 40.8594H301.902C302.003 42.0938 303.097 42.6797 304.417 42.6875C305.862 42.6797 306.909 41.9531 306.917 40.8438C306.909 39.8594 305.972 39.4609 304.777 39.1406L303.433 38.7812C301.612 38.2812 300.487 37.3594 300.48 35.7812C300.487 33.8281 302.222 32.5312 304.511 32.5312C306.808 32.5312 308.409 33.8438 308.464 35.6719H306.792ZM309.582 34.1719V32.6875H318.347V34.1719H314.832V44H313.113V34.1719H309.582ZM319.777 44V32.6875H326.871V34.1719H321.496V37.5938H326.496V39.0625H321.496V42.5156H326.933V44H319.777ZM328.66 44V32.6875H332.692C335.324 32.6875 336.613 34.2656 336.613 36.3594C336.613 38.4453 335.317 40.0312 332.692 40.0312H330.379V44H328.66ZM330.379 38.5625H332.52C334.184 38.5703 334.879 37.6328 334.879 36.3594C334.879 35.0781 334.184 34.1641 332.52 34.1562H330.379V38.5625ZM345.552 44.1562C343.208 44.1562 341.544 42.8984 341.473 41.0469H343.223C343.286 42.0391 344.27 42.6719 345.536 42.6719C346.903 42.6719 347.895 41.9297 347.895 40.8281C347.895 39.7109 346.966 38.9141 345.348 38.9062H344.38V37.5H345.348C346.638 37.5078 347.536 36.7891 347.536 35.7031C347.536 34.6719 346.763 33.9688 345.567 33.9688C344.434 33.9688 343.419 34.6016 343.38 35.625H341.723C341.77 33.7812 343.473 32.5312 345.583 32.5312C347.809 32.5312 349.208 33.9375 349.192 35.6094C349.208 36.8984 348.411 37.8203 347.192 38.125V38.2031C348.739 38.4219 349.638 39.4609 349.63 40.8906C349.638 42.7734 347.895 44.1562 345.552 44.1562Z" fill="#949494"/>
<circle cx="25" cy="10" r="10" fill="#3772F7"/>
<circle cx="25" cy="10" r="5" fill="white"/>
<circle cx="175" cy="10" r="5" fill="#949494"/>
<circle cx="325" cy="10" r="5" fill="#949494"/>
</svg>
