<svg width="351" height="50" viewBox="0 0 351 50" fill="none" xmlns="http://www.w3.org/2000/svg">
<path d="M25 10H325" stroke="#DDDDDD" stroke-linecap="round"/>
<path d="M7.30781 35.7969C7.20625 34.8203 6.38594 34.2578 5.16719 34.2656C3.87812 34.2578 3.1125 34.8828 3.10469 35.7344C3.09687 36.6875 4.10469 37.0781 5.04219 37.2969L6.10469 37.5781C7.79219 37.9688 9.41719 38.8594 9.41719 40.8281C9.41719 42.8125 7.84687 44.1719 5.13594 44.1719C2.50312 44.1719 0.831249 42.9062 0.745312 40.6719H2.74531C2.83906 41.8516 3.83125 42.4297 5.12031 42.4375C6.45625 42.4297 7.37812 41.7812 7.38594 40.8125C7.37812 39.9219 6.56562 39.5469 5.33906 39.2344L4.05781 38.9062C2.19844 38.4219 1.04219 37.4844 1.04219 35.8594C1.04219 33.8594 2.81562 32.5312 5.19844 32.5312C7.59687 32.5312 9.22969 33.8828 9.26094 35.7969H7.30781ZM10.2847 34.3906V32.6875H19.3003V34.3906H15.8159V44H13.7847V34.3906H10.2847ZM20.5741 44V32.6875H27.9334V34.3906H22.6053V37.4844H27.5428V39.1875H22.6053V42.2812H27.9647V44H20.5741ZM29.5666 44V32.6875H33.8166C36.4103 32.6875 37.7931 34.2656 37.8009 36.4375C37.7931 38.6016 36.3947 40.1719 33.7853 40.1719H31.5978V44H29.5666ZM31.5978 38.5H33.5041C35.0353 38.4922 35.7228 37.6328 35.7228 36.4375C35.7228 35.2266 35.0353 34.3906 33.5041 34.3906H31.5978V38.5ZM47.0828 32.6875V44H45.0359V34.6719H44.9734L42.3328 36.3594V34.5L45.1297 32.6875H47.0828Z" fill="#3772F7"/>
<path d="M155.659 35.7969C155.558 34.8203 154.737 34.2578 153.519 34.2656C152.23 34.2578 151.464 34.8828 151.456 35.7344C151.448 36.6875 152.456 37.0781 153.394 37.2969L154.456 37.5781C156.144 37.9688 157.769 38.8594 157.769 40.8281C157.769 42.8125 156.198 44.1719 153.487 44.1719C150.855 44.1719 149.183 42.9062 149.097 40.6719H151.097C151.191 41.8516 152.183 42.4297 153.472 42.4375C154.808 42.4297 155.73 41.7812 155.737 40.8125C155.73 39.9219 154.917 39.5469 153.691 39.2344L152.409 38.9062C150.55 38.4219 149.394 37.4844 149.394 35.8594C149.394 33.8594 151.167 32.5312 153.55 32.5312C155.948 32.5312 157.581 33.8828 157.612 35.7969H155.659ZM158.636 34.3906V32.6875H167.652V34.3906H164.167V44H162.136V34.3906H158.636ZM168.926 44V32.6875H176.285V34.3906H170.957V37.4844H175.894V39.1875H170.957V42.2812H176.316V44H168.926ZM177.918 44V32.6875H182.168C184.762 32.6875 186.145 34.2656 186.153 36.4375C186.145 38.6016 184.746 40.1719 182.137 40.1719H179.949V44H177.918ZM179.949 38.5H181.856C183.387 38.4922 184.074 37.6328 184.074 36.4375C184.074 35.2266 183.387 34.3906 181.856 34.3906H179.949V38.5ZM190.841 44V42.5312L194.841 38.6719C195.981 37.5312 196.575 36.8594 196.575 35.9062C196.575 34.8516 195.739 34.1875 194.638 34.1875C193.473 34.1875 192.723 34.9141 192.731 36.0625H190.794C190.786 33.9219 192.395 32.5312 194.653 32.5312C196.966 32.5312 198.52 33.9141 198.528 35.8125C198.52 37.0859 197.911 38.1172 195.684 40.2188L193.669 42.2188V42.2969H198.7V44H190.841Z" fill="#3772F7"/>
<path d="M306.792 35.6719C306.683 34.6172 305.761 34.0156 304.464 34.0156C303.081 34.0156 302.206 34.7266 302.198 35.6875C302.198 36.7578 303.362 37.1797 304.261 37.3906L305.355 37.6875C306.8 38.0391 308.612 38.8281 308.62 40.875C308.612 42.7891 307.089 44.1875 304.417 44.1875C301.886 44.1875 300.292 42.9219 300.183 40.8594H301.902C302.003 42.0938 303.097 42.6797 304.417 42.6875C305.862 42.6797 306.909 41.9531 306.917 40.8438C306.909 39.8594 305.972 39.4609 304.777 39.1406L303.433 38.7812C301.612 38.2812 300.487 37.3594 300.48 35.7812C300.487 33.8281 302.222 32.5312 304.511 32.5312C306.808 32.5312 308.409 33.8438 308.464 35.6719H306.792ZM309.582 34.1719V32.6875H318.347V34.1719H314.832V44H313.113V34.1719H309.582ZM319.777 44V32.6875H326.871V34.1719H321.496V37.5938H326.496V39.0625H321.496V42.5156H326.933V44H319.777ZM328.66 44V32.6875H332.692C335.324 32.6875 336.613 34.2656 336.613 36.3594C336.613 38.4453 335.317 40.0312 332.692 40.0312H330.379V44H328.66ZM330.379 38.5625H332.52C334.184 38.5703 334.879 37.6328 334.879 36.3594C334.879 35.0781 334.184 34.1641 332.52 34.1562H330.379V38.5625ZM345.552 44.1562C343.208 44.1562 341.544 42.8984 341.473 41.0469H343.223C343.286 42.0391 344.27 42.6719 345.536 42.6719C346.903 42.6719 347.895 41.9297 347.895 40.8281C347.895 39.7109 346.966 38.9141 345.348 38.9062H344.38V37.5H345.348C346.638 37.5078 347.536 36.7891 347.536 35.7031C347.536 34.6719 346.763 33.9688 345.567 33.9688C344.434 33.9688 343.419 34.6016 343.38 35.625H341.723C341.77 33.7812 343.473 32.5312 345.583 32.5312C347.809 32.5312 349.208 33.9375 349.192 35.6094C349.208 36.8984 348.411 37.8203 347.192 38.125V38.2031C348.739 38.4219 349.638 39.4609 349.63 40.8906C349.638 42.7734 347.895 44.1562 345.552 44.1562Z" fill="#949494"/>
<circle cx="25" cy="10" r="10" fill="#3772F7"/>
<circle cx="25" cy="10" r="5" fill="white"/>
<circle cx="175" cy="10" r="10" fill="#3772F7"/>
<circle cx="325" cy="10" r="5" fill="#949494"/>
<circle cx="175" cy="10" r="5" fill="white"/>
</svg>
