<svg width="351" height="50" viewBox="0 0 351 50" fill="none" xmlns="http://www.w3.org/2000/svg">
<path d="M25 10H325" stroke="#DDDDDD" stroke-linecap="round"/>
<path d="M7.30781 35.7969C7.20625 34.8203 6.38594 34.2578 5.16719 34.2656C3.87812 34.2578 3.1125 34.8828 3.10469 35.7344C3.09687 36.6875 4.10469 37.0781 5.04219 37.2969L6.10469 37.5781C7.79219 37.9688 9.41719 38.8594 9.41719 40.8281C9.41719 42.8125 7.84687 44.1719 5.13594 44.1719C2.50312 44.1719 0.831249 42.9062 0.745312 40.6719H2.74531C2.83906 41.8516 3.83125 42.4297 5.12031 42.4375C6.45625 42.4297 7.37812 41.7812 7.38594 40.8125C7.37812 39.9219 6.56562 39.5469 5.33906 39.2344L4.05781 38.9062C2.19844 38.4219 1.04219 37.4844 1.04219 35.8594C1.04219 33.8594 2.81562 32.5312 5.19844 32.5312C7.59687 32.5312 9.22969 33.8828 9.26094 35.7969H7.30781ZM10.2847 34.3906V32.6875H19.3003V34.3906H15.8159V44H13.7847V34.3906H10.2847ZM20.5741 44V32.6875H27.9334V34.3906H22.6053V37.4844H27.5428V39.1875H22.6053V42.2812H27.9647V44H20.5741ZM29.5666 44V32.6875H33.8166C36.4103 32.6875 37.7931 34.2656 37.8009 36.4375C37.7931 38.6016 36.3947 40.1719 33.7853 40.1719H31.5978V44H29.5666ZM31.5978 38.5H33.5041C35.0353 38.4922 35.7228 37.6328 35.7228 36.4375C35.7228 35.2266 35.0353 34.3906 33.5041 34.3906H31.5978V38.5ZM47.0828 32.6875V44H45.0359V34.6719H44.9734L42.3328 36.3594V34.5L45.1297 32.6875H47.0828Z" fill="#3772F7"/>
<path d="M155.659 35.7969C155.558 34.8203 154.737 34.2578 153.519 34.2656C152.23 34.2578 151.464 34.8828 151.456 35.7344C151.448 36.6875 152.456 37.0781 153.394 37.2969L154.456 37.5781C156.144 37.9688 157.769 38.8594 157.769 40.8281C157.769 42.8125 156.198 44.1719 153.487 44.1719C150.855 44.1719 149.183 42.9062 149.097 40.6719H151.097C151.191 41.8516 152.183 42.4297 153.472 42.4375C154.808 42.4297 155.73 41.7812 155.737 40.8125C155.73 39.9219 154.917 39.5469 153.691 39.2344L152.409 38.9062C150.55 38.4219 149.394 37.4844 149.394 35.8594C149.394 33.8594 151.167 32.5312 153.55 32.5312C155.948 32.5312 157.581 33.8828 157.612 35.7969H155.659ZM158.636 34.3906V32.6875H167.652V34.3906H164.167V44H162.136V34.3906H158.636ZM168.926 44V32.6875H176.285V34.3906H170.957V37.4844H175.894V39.1875H170.957V42.2812H176.316V44H168.926ZM177.918 44V32.6875H182.168C184.762 32.6875 186.145 34.2656 186.153 36.4375C186.145 38.6016 184.746 40.1719 182.137 40.1719H179.949V44H177.918ZM179.949 38.5H181.856C183.387 38.4922 184.074 37.6328 184.074 36.4375C184.074 35.2266 183.387 34.3906 181.856 34.3906H179.949V38.5ZM190.841 44V42.5312L194.841 38.6719C195.981 37.5312 196.575 36.8594 196.575 35.9062C196.575 34.8516 195.739 34.1875 194.638 34.1875C193.473 34.1875 192.723 34.9141 192.731 36.0625H190.794C190.786 33.9219 192.395 32.5312 194.653 32.5312C196.966 32.5312 198.52 33.9141 198.528 35.8125C198.52 37.0859 197.911 38.1172 195.684 40.2188L193.669 42.2188V42.2969H198.7V44H190.841Z" fill="#3772F7"/>
<path d="M306.425 35.7969C306.323 34.8203 305.503 34.2578 304.284 34.2656C302.995 34.2578 302.23 34.8828 302.222 35.7344C302.214 36.6875 303.222 37.0781 304.159 37.2969L305.222 37.5781C306.909 37.9688 308.534 38.8594 308.534 40.8281C308.534 42.8125 306.964 44.1719 304.253 44.1719C301.62 44.1719 299.948 42.9062 299.862 40.6719H301.862C301.956 41.8516 302.948 42.4297 304.237 42.4375C305.573 42.4297 306.495 41.7812 306.503 40.8125C306.495 39.9219 305.683 39.5469 304.456 39.2344L303.175 38.9062C301.316 38.4219 300.159 37.4844 300.159 35.8594C300.159 33.8594 301.933 32.5312 304.316 32.5312C306.714 32.5312 308.347 33.8828 308.378 35.7969H306.425ZM309.402 34.3906V32.6875H318.417V34.3906H314.933V44H312.902V34.3906H309.402ZM319.691 44V32.6875H327.051V34.3906H321.722V37.4844H326.66V39.1875H321.722V42.2812H327.082V44H319.691ZM328.684 44V32.6875H332.934C335.528 32.6875 336.91 34.2656 336.918 36.4375C336.91 38.6016 335.512 40.1719 332.903 40.1719H330.715V44H328.684ZM330.715 38.5H332.621C334.153 38.4922 334.84 37.6328 334.84 36.4375C334.84 35.2266 334.153 34.3906 332.621 34.3906H330.715V38.5ZM345.716 44.1562C343.302 44.1562 341.575 42.8438 341.528 40.9375H343.575C343.63 41.8438 344.536 42.4453 345.716 42.4375C346.958 42.4453 347.856 41.7578 347.856 40.75C347.856 39.7344 346.981 39.0078 345.513 39H344.497V37.4375H345.513C346.716 37.4375 347.552 36.7656 347.544 35.7812C347.552 34.8281 346.833 34.1875 345.731 34.1875C344.669 34.1875 343.755 34.7812 343.716 35.7344H341.763C341.809 33.8359 343.536 32.5312 345.747 32.5312C348.044 32.5312 349.528 33.9375 349.513 35.6719C349.528 36.9375 348.684 37.8516 347.45 38.1094V38.2031C349.044 38.4141 349.95 39.4375 349.934 40.8594C349.95 42.7734 348.161 44.1562 345.716 44.1562Z" fill="#3772F7"/>
<circle cx="25" cy="10" r="10" fill="#3772F7"/>
<circle cx="25" cy="10" r="5" fill="white"/>
<circle cx="175" cy="10" r="10" fill="#3772F7"/>
<circle cx="175" cy="10" r="5" fill="white"/>
<circle cx="325" cy="10" r="10" fill="#3772F7"/>
<circle cx="325" cy="10" r="5" fill="white"/>
</svg>
