<svg width="24" height="24" viewBox="0 0 24 24" fill="none" xmlns="http://www.w3.org/2000/svg">
<path d="M16.0166 9.4288H21L17.8245 6.34278C16.8021 5.34986 15.5286 4.63582 14.132 4.27245C12.7354 3.90908 11.265 3.90919 9.86844 4.27276C8.47191 4.63633 7.19853 5.35055 6.17633 6.34362C5.15413 7.3367 4.41912 8.57362 4.0452 9.93005M3.001 19.4111V14.5712M3.001 14.5712H7.98442M3.001 14.5712L6.17553 17.6572C7.19789 18.6501 8.47137 19.3642 9.86796 19.7276C11.2645 20.0909 12.735 20.0908 14.1316 19.7272C15.5281 19.3637 16.8015 18.6495 17.8237 17.6564C18.8459 16.6633 19.5809 15.4264 19.9548 14.07M21 4.5889V9.42686" stroke="#FF4D00" stroke-width="2" stroke-linecap="round" stroke-linejoin="round"/>
</svg>
