<svg width="184" height="40" viewBox="0 0 184 40" fill="none" xmlns="http://www.w3.org/2000/svg">
<path fill-rule="evenodd" clip-rule="evenodd" d="M18.4551 36.7296C28.6475 36.7296 36.9102 28.5074 36.9102 18.3648C36.9102 8.2222 28.6475 0 18.4551 0C8.26262 0 0 8.2222 0 18.3648C0 18.5142 0.00179281 18.6632 0.00535819 18.8117L0.00535832 28.7784L12.2064 21.7686C11.9843 21.1116 11.864 20.4081 11.864 19.6766C11.864 16.0542 14.8149 13.1177 18.4551 13.1177C22.0953 13.1177 25.0462 16.0542 25.0462 19.6766C25.0462 23.2989 22.0953 26.2354 18.4551 26.2354C16.5705 26.2354 14.8706 25.4483 13.6693 24.1864L0.00535836 32.0367L0.00535843 37.3725C0.00535846 39.3921 2.2024 40.6544 3.96002 39.6446L11.4307 35.3525C13.5959 36.2401 15.968 36.7296 18.4551 36.7296Z" fill="#C8CEDA"/>
<path d="M184 32.7472H165.546C164.105 32.7472 162.93 32.2956 162.021 31.3924C161.135 30.5112 160.691 29.3547 160.691 27.9228V11.0373C160.691 9.6054 161.135 8.44886 162.021 7.56769C162.93 6.66449 164.105 6.21289 165.546 6.21289H184V12.1608H167.341V16.3904H183.468V21.8427H167.341V26.7993H184V32.7472Z" fill="#C8CEDA"/>
<path d="M158.17 32.7472H144.537C143.096 32.7472 141.921 32.2956 141.013 31.3924C140.126 30.5112 139.683 29.3547 139.683 27.9228V6.21289H146.333V26.7993H158.17V32.7472Z" fill="#C8CEDA"/>
<path d="M136.353 19.5296C136.353 20.9615 135.898 22.1291 134.989 23.0323C134.103 23.9134 132.939 24.354 131.498 24.354H118.929V32.7472H112.279V6.21289H131.498C132.939 6.21289 134.103 6.66449 134.989 7.56769C135.898 8.44886 136.353 9.6054 136.353 11.0373V19.5296ZM129.703 18.4061V12.1608H118.929V18.4061H129.703Z" fill="#C8CEDA"/>
<path d="M108.882 19.5296C108.882 20.9615 108.428 22.1291 107.519 23.0323C106.632 23.9134 105.468 24.354 104.027 24.354H91.4587V32.7472H84.8086V6.21289H104.027C105.468 6.21289 106.632 6.66449 107.519 7.56769C108.428 8.44886 108.882 9.6054 108.882 11.0373V19.5296ZM102.232 18.4061V12.1608H91.4587V18.4061H102.232Z" fill="#C8CEDA"/>
<path d="M80.9455 32.7472H73.9629V6.21289H80.9455V32.7472Z" fill="#C8CEDA"/>
<path d="M70.7202 32.7475H46.3809V27.13L60.8781 12.1941H47.0459V6.24622H70.0552V11.8637L55.5247 26.7995H70.7202V32.7475Z" fill="#C8CEDA"/>
</svg>
