<svg width="30" height="30" viewBox="0 0 30 30" fill="none" xmlns="http://www.w3.org/2000/svg">
<path d="M18.0942 20.6491C20.1118 20.404 22.0941 19.9153 24 19.1933C22.3859 17.3584 21.494 14.9732 21.4976 12.5012V11.6677C21.4976 9.89932 20.8131 8.20337 19.5946 6.95293C18.3762 5.70249 16.7237 5 15.0005 5C13.2774 5 11.6249 5.70249 10.4065 6.95293C9.18803 8.20337 8.50352 9.89932 8.50352 11.6677V12.5012C8.50679 14.9734 7.6145 17.3586 6 19.1933C7.87656 19.9046 9.8549 20.3991 11.9069 20.6491M18.0942 20.6491C16.039 20.8993 13.9621 20.8993 11.9069 20.6491M18.0942 20.6491C18.2502 21.149 18.289 21.6797 18.2075 22.1979C18.1259 22.7162 17.9262 23.2073 17.6247 23.6313C17.3231 24.0554 16.9283 24.4004 16.4723 24.6382C16.0163 24.876 15.512 25 15.0005 25C14.489 25 13.9848 24.876 13.5288 24.6382C13.0728 24.4004 12.6779 24.0554 12.3764 23.6313C12.0749 23.2073 11.8752 22.7162 11.7936 22.1979C11.712 21.6797 11.7508 21.149 11.9069 20.6491" stroke="#222222" stroke-width="2" stroke-linecap="round" stroke-linejoin="round"/>
<circle cx="27" cy="3" r="3" fill="#3772F7"/>
</svg>
