<svg width="20" height="22" viewBox="0 0 20 22" fill="none" xmlns="http://www.w3.org/2000/svg">
<path d="M13.0942 16.6491C15.1118 16.404 17.0941 15.9153 19 15.1933C17.3859 13.3584 16.494 10.9732 16.4976 8.50118V7.66771C16.4976 5.89932 15.8131 4.20337 14.5946 2.95293C13.3762 1.70249 11.7237 1 10.0005 1C8.27742 1 6.62488 1.70249 5.40645 2.95293C4.18803 4.20337 3.50352 5.89932 3.50352 7.66771V8.50118C3.50679 10.9734 2.6145 13.3586 1 15.1933C2.87656 15.9046 4.8549 16.3991 6.90688 16.6491M13.0942 16.6491C11.039 16.8993 8.96212 16.8993 6.90688 16.6491M13.0942 16.6491C13.2502 17.149 13.289 17.6797 13.2075 18.1979C13.1259 18.7162 12.9262 19.2073 12.6247 19.6313C12.3231 20.0554 11.9283 20.4004 11.4723 20.6382C11.0163 20.876 10.512 21 10.0005 21C9.48903 21 8.98476 20.876 8.52876 20.6382C8.07276 20.4004 7.67793 20.0554 7.37642 19.6313C7.0749 19.2073 6.87522 18.7162 6.79363 18.1979C6.71203 17.6797 6.75084 17.149 6.90688 16.6491" stroke="#222222" stroke-width="2" stroke-linecap="round" stroke-linejoin="round"/>
</svg>
