<svg width="20" height="20" viewBox="0 0 20 20" fill="none" xmlns="http://www.w3.org/2000/svg">
<path d="M12.9137 9.96106C13.5541 9.45998 14.0216 8.77284 14.251 7.99525C14.4804 7.21767 14.4605 6.38829 14.1939 5.62251C13.9273 4.85674 13.4273 4.19264 12.7635 3.72261C12.0997 3.25258 11.3052 3 10.4903 3C9.67546 3 8.88088 3.25258 8.2171 3.72261C7.55331 4.19264 7.05335 4.85674 6.78675 5.62251C6.52016 6.38829 6.50019 7.21767 6.72963 7.99525C6.95907 8.77284 7.4265 9.45998 8.0669 9.96106C6.96956 10.3983 6.01209 11.1235 5.29657 12.0593C4.58105 12.9951 4.1343 14.1065 4.00394 15.275C3.9945 15.3603 4.00206 15.4466 4.02617 15.529C4.05028 15.6114 4.09047 15.6883 4.14445 15.7553C4.25348 15.8905 4.41205 15.9771 4.5853 15.9961C4.75854 16.015 4.93226 15.9648 5.06823 15.8563C5.20421 15.7479 5.2913 15.5902 5.31036 15.4179C5.45379 14.148 6.06265 12.9752 7.02061 12.1235C7.97856 11.2719 9.21845 10.801 10.5034 10.801C11.7883 10.801 13.0282 11.2719 13.9861 12.1235C14.9441 12.9752 15.553 14.148 15.6964 15.4179C15.7142 15.5775 15.7907 15.725 15.9114 15.8317C16.032 15.9385 16.1881 15.9971 16.3496 15.9961H16.4215C16.5927 15.9765 16.7492 15.8904 16.8569 15.7565C16.9645 15.6227 17.0146 15.4519 16.9963 15.2815C16.8653 14.1097 16.4161 12.9955 15.6969 12.0582C14.9777 11.1209 14.0156 10.396 12.9137 9.96106ZM10.4903 9.49982C9.97354 9.49982 9.46838 9.34742 9.0387 9.0619C8.60902 8.77637 8.27412 8.37054 8.07636 7.89573C7.8786 7.42091 7.82686 6.89844 7.92768 6.39438C8.02849 5.89032 8.27734 5.42731 8.64276 5.0639C9.00817 4.7005 9.47373 4.45301 9.98057 4.35275C10.4874 4.25249 11.0128 4.30395 11.4902 4.50062C11.9676 4.69729 12.3757 5.03035 12.6628 5.45767C12.9499 5.88499 13.1032 6.38739 13.1032 6.90132C13.1032 7.59049 12.8279 8.25143 12.3379 8.73874C11.8479 9.22605 11.1833 9.49982 10.4903 9.49982Z" fill="#505050"/>
</svg>
