<svg width="30" height="30" viewBox="0 0 30 30" fill="none" xmlns="http://www.w3.org/2000/svg">
<circle cx="15" cy="15" r="15" fill="#282B31"/>
<path d="M22.0685 13.0213C22.7169 13.3922 23.2427 13.9425 23.5817 14.6051C23.9206 15.2677 24.0582 16.014 23.9775 16.753C23.8969 17.4919 23.6015 18.1916 23.1274 18.7666C22.6534 19.3417 22.0211 19.7673 21.3077 19.9915C21.0556 21.1281 20.4202 22.145 19.5069 22.874C18.5936 23.603 17.457 24.0002 16.2854 24H14.3577C14.1873 24 14.0238 23.9328 13.9033 23.813C13.7828 23.6933 13.7151 23.531 13.7151 23.3617C13.7151 23.1924 13.7828 23.0301 13.9033 22.9104C14.0238 22.7907 14.1873 22.7234 14.3577 22.7234H16.2854C17.083 22.7236 17.861 22.4782 18.5123 22.021C19.1637 21.5637 19.6563 20.9171 19.9223 20.1702H19.4982C19.3278 20.1702 19.1644 20.103 19.0439 19.9833C18.9234 19.8636 18.8557 19.7012 18.8557 19.5319V13.1489C18.8557 12.9796 18.9234 12.8173 19.0439 12.6976C19.1644 12.5779 19.3278 12.5106 19.4982 12.5106H20.1408C20.349 12.5106 20.5533 12.5272 20.7538 12.5591C20.6091 11.1433 19.9406 9.83113 18.8776 8.87696C17.8146 7.9228 16.4329 7.39454 15.0003 7.39454C13.5676 7.39454 12.1859 7.9228 11.1229 8.87696C10.06 9.83113 9.39136 11.1433 9.24669 12.5591C9.44942 12.5269 9.6544 12.5107 9.8597 12.5106H10.5023C10.6727 12.5106 10.8361 12.5779 10.9566 12.6976C11.0771 12.8173 11.1448 12.9796 11.1448 13.1489V19.5319C11.1448 19.7012 11.0771 19.8636 10.9566 19.9833C10.8361 20.103 10.6727 20.1702 10.5023 20.1702H9.8597C9.01021 20.1712 8.18418 19.8934 7.50996 19.38C6.83574 18.8666 6.35108 18.1465 6.13129 17.3313C5.91149 16.5162 5.96886 15.6518 6.29449 14.8724C6.62012 14.093 7.19577 13.4423 7.932 13.0213C7.932 11.1591 8.67669 9.37323 10.0022 8.05648C11.3278 6.73974 13.1256 6 15.0003 6C16.8749 6 18.6727 6.73974 19.9983 8.05648C21.3238 9.37323 22.0685 11.1591 22.0685 13.0213ZM9.8597 13.7872C9.17803 13.7872 8.52427 14.0562 8.04225 14.535C7.56023 15.0139 7.28943 15.6633 7.28943 16.3404C7.28943 17.0176 7.56023 17.667 8.04225 18.1458C8.52427 18.6246 9.17803 18.8936 9.8597 18.8936V13.7872ZM22.7111 16.3404C22.7111 15.6633 22.4403 15.0139 21.9583 14.535C21.4762 14.0562 20.8225 13.7872 20.1408 13.7872V18.8936C20.8225 18.8936 21.4762 18.6246 21.9583 18.1458C22.4403 17.667 22.7111 17.0176 22.7111 16.3404Z" fill="white"/>
</svg>
